<svg width="24" height="24" viewBox="0 0 24 24" fill="none" xmlns="http://www.w3.org/2000/svg">
<rect x="0.5" y="0.5" width="23" height="23" fill="white"/>
<rect x="0.5" y="0.5" width="23" height="23" stroke="white"/>
<path d="M12 21L8.40002 17.4H6.00002C5.04525 17.4 4.12957 17.0207 3.45444 16.3456C2.77931 15.6705 2.40002 14.7548 2.40002 13.8V6.6C2.40002 5.64522 2.77931 4.72955 3.45444 4.05442C4.12957 3.37928 5.04525 3 6.00002 3H18C18.9548 3 19.8705 3.37928 20.5456 4.05442C21.2207 4.72955 21.6 5.64522 21.6 6.6V13.8C21.6 14.7548 21.2207 15.6705 20.5456 16.3456C19.8705 17.0207 18.9548 17.4 18 17.4H15.6L12 21Z" stroke="#7C8493" stroke-width="2" stroke-linecap="round" stroke-linejoin="round"/>
<path d="M7.20007 7.80005H16.8001" stroke="#7C8493" stroke-width="2" stroke-linecap="round" stroke-linejoin="round"/>
</svg>
